<?xml version="1.0" encoding="UTF-8" standalone="no"?>
<svg
   version="1.1"
   id="Layer_1"
   x="0px"
   y="0px"
   width="100%"
   viewBox="0 0 1024 1024"
   enable-background="new 0 0 1024 1024"
   xml:space="preserve"
   sodipodi:docname="checkpoint.svg"
   inkscape:version="1.4.2 (f4327f4, 2025-05-13)"
   xmlns:inkscape="http://www.inkscape.org/namespaces/inkscape"
   xmlns:sodipodi="http://sodipodi.sourceforge.net/DTD/sodipodi-0.dtd"
   xmlns="http://www.w3.org/2000/svg"
   xmlns:svg="http://www.w3.org/2000/svg"><defs
   id="defs61" /><sodipodi:namedview
   id="namedview61"
   pagecolor="#ffffff"
   bordercolor="#000000"
   borderopacity="0.25"
   inkscape:showpageshadow="2"
   inkscape:pageopacity="0.0"
   inkscape:pagecheckerboard="0"
   inkscape:deskcolor="#d1d1d1"
   inkscape:zoom="0.83496094"
   inkscape:cx="511.40117"
   inkscape:cy="128.74854"
   inkscape:window-width="1920"
   inkscape:window-height="1057"
   inkscape:window-x="-8"
   inkscape:window-y="-8"
   inkscape:window-maximized="1"
   inkscape:current-layer="Layer_1" />
<path
   fill="#000000"
   opacity="1.000000"
   stroke="none"
   d=" M273.816833,564.818298   C267.421844,570.931763 261.383209,576.911255 255.107040,582.629944   C252.171280,585.304932 250.944626,588.184753 250.986557,592.219666   C251.183914,611.215942 250.982574,630.216248 251.168655,649.212769   C251.210968,653.533752 249.991196,656.212463 245.990814,658.349548   C233.280319,665.139648 233.343201,665.341797 220.894608,657.988770   C215.444427,654.769592 210.175415,651.241943 204.703094,648.062622   C201.783188,646.366089 200.543060,644.236877 200.656387,640.788635   C200.891678,633.630127 200.635300,626.456604 200.786880,619.293579   C200.848297,616.391785 199.905075,614.270569 197.828140,612.256165   C188.856842,603.554688 180.044327,594.689697 171.094604,585.965698   C169.044113,583.966919 167.830902,582.363220 169.151215,579.106384   C170.923813,574.733826 169.003952,570.995728 165.149750,568.335327   C161.184494,565.598206 157.265930,565.920410 153.618896,568.829773   C150.057266,571.671082 149.288315,575.616943 150.769058,579.666992   C152.362976,584.026672 155.877945,586.360107 160.575104,585.704224   C163.772598,585.257812 165.858780,586.303589 168.026550,588.473999   C176.622452,597.080505 185.373688,605.531677 194.056656,614.051331   C195.241806,615.214233 196.785019,616.343262 196.810806,618.091614   C196.924973,625.831726 196.860214,633.574585 196.860214,641.230530   C194.380768,641.836670 193.256485,640.356262 191.988098,639.423767   C187.289948,635.969788 182.699570,632.369019 177.994583,628.924683   C174.636276,626.466248 171.947647,624.369202 174.455170,619.271545   C176.169174,615.786926 174.924149,611.665649 171.680634,608.830322   C168.384552,605.949036 164.339355,604.937866 160.523270,606.863037   C157.178940,608.550171 155.431778,607.506775 153.333862,605.170410   C144.275101,595.082031 136.760498,584.022156 131.246445,571.672363   C133.069366,569.976501 134.749954,571.077759 136.303177,571.026550   C140.346146,570.893127 142.850922,568.620605 144.222107,565.160278   C145.534454,561.848511 144.592590,558.631104 141.636826,556.778687   C138.395798,554.747437 137.912598,552.001831 138.045258,548.676758   C138.304184,542.187378 138.464493,535.694092 138.674515,529.202637   C138.741165,527.142883 138.875671,524.674561 136.012985,524.897888   C133.616577,525.084900 133.990677,527.270081 134.045822,529.218750   C134.253113,536.544312 134.112946,543.879883 134.330017,551.204956   C134.481033,556.300049 128.591965,556.892212 127.842865,561.144653   C125.257591,560.256104 125.385567,558.084717 124.934166,556.498230   C121.874435,545.744507 119.617615,534.833191 119.681374,523.583435   C119.697433,520.750122 119.539230,518.577393 116.269936,517.297241   C113.147499,516.074585 111.981392,513.168457 113.055290,509.819916   C114.074562,506.641632 116.683289,506.235291 119.535286,506.544281   C122.671524,506.884003 125.846970,506.416260 128.975082,507.286713   C131.100601,507.878204 132.654251,506.836243 132.748291,504.535217   C132.838150,502.335724 131.285965,501.768402 129.382736,501.880371   C128.718460,501.919464 128.059784,502.057281 127.395508,502.092926   C119.461594,502.518860 118.231422,501.158112 119.104515,493.455231   C119.405594,490.798889 120.499077,489.663483 123.227440,489.694702   C131.225708,489.786316 139.227203,489.626221 147.224609,489.748840   C151.371597,489.812439 156.120834,494.571014 156.218582,498.881195   C156.396149,506.709717 156.238541,514.545349 156.301315,522.377380   C156.318314,524.500366 155.157272,525.554993 153.594833,526.752136   C149.511292,529.881165 148.904083,535.705505 152.071503,539.029968   C155.284515,542.402283 160.629150,542.560852 163.729858,539.375977   C166.968506,536.049377 166.683212,530.195862 162.694778,527.041504   C160.403061,525.229004 159.843353,523.177307 159.866730,520.556458   C159.933594,513.057434 159.971725,505.557556 159.935822,498.058411   C159.904480,491.508759 153.267838,485.570587 146.703384,485.758270   C139.209686,485.972504 131.705185,485.782562 124.208458,485.927582   C120.315453,486.002869 118.955559,484.298187 119.034744,480.485382   C119.211212,471.989746 119.256676,463.482819 119.010986,454.990448   C118.876198,450.331299 120.873291,449.202240 125.225655,448.949890   C131.603134,448.580109 136.957123,449.418823 141.031998,455.016144   C142.702515,457.310852 143.969604,458.907928 142.900467,462.042786   C141.486328,466.189270 144.851913,470.343262 149.679001,471.308899   C153.475220,472.068268 157.792343,469.423401 158.589294,465.850006   C159.582275,461.397644 157.019821,456.335632 152.828842,456.453827   C147.484283,456.604614 144.325424,453.883392 141.688278,450.255493   C138.398224,445.729523 134.091446,445.168945 129.009048,445.261139   C117.250359,445.474487 119.760948,445.860626 119.619659,435.666779   C119.536522,429.668701 119.496254,423.664398 119.672440,417.669830   C119.876289,410.733917 124.946823,405.476135 131.845993,404.715302   C144.105820,403.363251 144.326553,403.366852 144.122177,415.757050   C144.041122,420.670990 145.290604,424.399689 149.121140,427.492188   C151.702637,429.576324 153.880447,432.153229 156.317978,434.424744   C159.279526,437.184509 161.557526,439.680359 160.529007,444.597260   C159.420456,449.896667 164.472549,454.694489 170.371124,454.683472   C173.531937,454.677582 175.707962,455.750732 177.774292,457.929199   C182.241547,462.638733 186.882492,467.183075 191.380096,471.864471   C192.648117,473.184265 193.883743,474.450806 195.476288,472.651031   C196.995132,470.934662 195.639465,469.621033 194.384064,468.430206   C189.791901,464.074219 185.251236,459.662445 180.595413,455.375641   C178.422806,453.375275 177.648132,451.639160 178.913269,448.469543   C181.847168,441.119080 175.692200,433.935638 167.858521,435.598663   C164.539673,436.303192 162.502579,435.636993 160.487289,433.236938   C158.991882,431.455994 157.452133,429.576721 155.559479,428.288940   C148.311371,423.357239 146.787811,416.415710 147.580566,408.251038   C147.871811,405.251434 148.609146,403.862152 151.771332,403.413727   C168.310425,401.068207 184.502304,397.322479 199.778549,390.334442   C204.116196,388.350220 208.307938,386.047028 212.480194,383.933838   C214.376114,385.892090 213.870483,387.986084 213.875397,389.921814   C213.904541,401.419800 213.951553,412.919098 213.791794,424.415161   C213.760208,426.688934 214.542801,428.165039 216.084625,429.612854   C222.642380,435.770935 229.215729,441.915863 235.628616,448.222992   C237.992493,450.547882 239.967392,451.140869 242.207016,448.310394   C242.412140,448.051178 242.652023,447.801544 242.922058,447.614197   C252.853271,440.723572 256.369049,431.489990 255.051437,419.375366   C253.976318,409.490265 254.758957,399.400116 254.785339,389.401031   C254.789978,387.638367 254.239105,385.741180 255.827194,383.735657   C260.743439,386.237549 265.644073,388.927460 270.705963,391.268738   C283.028564,396.968262 296.127991,400.143280 309.348206,402.934967   C313.603760,403.833588 318.696686,403.795441 319.949890,409.559418   C321.378326,416.129364 319.111328,421.207672 313.656219,425.068787   C311.930481,426.290253 310.337219,426.150848 308.474670,425.717743   C303.534790,424.569061 299.918396,426.693848 297.718628,430.937592   C295.671234,434.887421 296.387421,438.722839 299.597595,441.921539   C303.005493,445.317291 307.041016,445.730133 311.050385,443.466675   C315.170990,441.140442 317.396545,437.483246 315.811127,432.593689   C314.910095,429.814667 315.945007,427.950928 318.028290,426.622894   C323.767365,422.964325 325.350800,417.775818 324.864044,411.229767   C324.410461,405.129852 325.099335,404.780579 331.312805,404.838287   C342.288116,404.940216 347.930176,410.405518 348.287659,421.286743   C348.484558,427.280121 348.786072,433.272797 348.837250,439.267517   C348.887848,445.193634 348.033569,446.056549 342.272308,445.916595   C337.282532,445.795410 332.294098,445.452698 327.316925,445.058319   C325.244354,444.894073 323.308228,445.000122 323.489655,447.546509   C323.649078,449.784821 325.581421,449.684814 327.356171,449.370575   C332.821411,448.402954 338.331726,449.292480 343.812988,449.016266   C347.478943,448.831512 348.952942,450.622925 348.870941,454.122101   C348.699158,461.448578 348.579620,468.776337 348.428375,476.103333   C348.418121,476.599182 348.438232,477.475952 348.250336,477.532654   C342.534760,479.256287 340.437805,486.280365 334.199951,487.138367   C332.730377,487.340515 331.138031,487.414124 329.716187,487.072388   C321.668976,485.138306 316.872803,490.285034 312.330261,495.324860   C309.925476,497.992920 310.830566,501.951385 310.700562,505.369019   C310.665039,506.302216 311.766357,507.069305 312.911438,506.946899   C314.352631,506.792786 315.045288,505.626007 314.816284,504.457520   C313.577118,498.134125 317.711670,494.749390 322.076233,492.024597   C326.539673,489.238037 331.819946,490.993195 336.745056,490.866943   C338.018585,490.834290 338.674500,491.995483 339.419189,492.909515   C340.357880,494.061615 341.400696,495.130981 342.426483,496.209503   C344.202942,498.077209 348.359711,496.481171 348.739380,500.101349   C349.183899,504.339661 349.575409,508.673035 348.217133,512.661621   C346.795044,513.460327 346.046997,512.580994 345.215332,512.126953   C338.589020,508.509430 333.145050,510.127441 330.196198,517.088867   C329.007446,519.895264 327.710480,520.789429 324.668823,520.557678   C318.900940,520.118164 312.624573,526.885071 311.977112,532.703979   C310.973053,541.727417 313.407715,548.806335 320.961639,554.311646   C324.970245,557.233093 329.102722,560.441467 327.547668,566.954529   C326.874420,569.774231 329.298920,572.635376 331.904083,574.373047   C334.286346,575.962097 334.210632,577.656860 332.907898,579.849670   C327.963867,588.172119 322.606476,596.190857 316.265228,603.536987   C314.374054,605.727905 312.635590,606.324707 309.807068,604.972046   C306.355438,603.321411 302.890381,604.156433 300.187256,606.936890   C297.546112,609.653564 296.540833,612.844299 298.173279,616.540039   C298.917114,618.224060 299.792328,619.953735 297.971161,621.549927   C290.105225,628.444214 281.960907,634.970215 273.250946,640.908691   C269.486298,633.492126 271.565948,619.543091 276.904144,614.434814   C284.849640,606.831665 292.851166,599.286438 300.742859,591.627991   C302.667542,589.760193 304.398224,588.898376 307.317963,589.486023   C312.582611,590.545410 316.709198,587.475281 317.196533,582.871582   C317.655579,578.534851 314.439697,574.657532 310.030487,574.231689   C305.104187,573.755920 301.524475,576.830383 301.379730,582.243103   C301.304260,585.064880 300.121857,586.870300 298.231659,588.664429   C289.291107,597.150146 280.467224,605.759399 271.486328,614.201782   C268.995758,616.543030 267.779785,619.031555 267.952789,622.528015   C268.199463,627.514038 267.997314,632.523865 267.940002,637.522949   C267.847473,645.594421 264.160370,649.737061 255.658905,651.342163   C254.295822,649.998657 254.760788,648.239746 254.751709,646.647583   C254.694626,636.648621 254.843140,626.646545 254.633865,616.651550   C254.556931,612.976440 255.862534,610.374268 258.443054,607.909729   C268.926178,597.897705 279.283386,587.753906 289.687836,577.659485   C290.404266,576.964417 291.204285,576.338867 291.829681,575.570496   C292.751678,574.437805 293.134216,573.131042 291.828217,572.038208   C290.491760,570.919922 289.332336,571.609253 288.399597,572.743835   C279.900360,583.082397 269.175110,591.174805 260.021515,600.855103   C258.816132,602.129822 257.820862,603.831909 255.004059,604.116028   C255.109146,596.691956 252.617996,589.488403 259.920380,583.252747   C269.405304,575.153259 277.880188,565.882080 287.047211,557.393250   C290.382263,554.304932 292.029724,551.118958 291.704468,546.528870   C291.347809,541.495605 290.787048,536.550964 296.179382,532.795471   C299.580780,530.426636 298.443542,524.033752 295.186798,521.187317   C291.985748,518.389587 286.766296,518.433044 283.740234,521.282410   C280.545105,524.291077 280.190643,529.640015 282.956818,533.105713   C289.727356,541.588379 289.261841,549.620422 281.556000,557.218628   C279.065430,559.674438 276.569397,562.124695 273.816833,564.818298  M311.653809,468.034882   C309.709595,458.077362 303.196747,452.232697 293.888428,449.747681   C285.425659,447.488403 278.668793,451.270905 273.111908,457.594879   C270.363708,460.722443 267.466064,463.718750 264.634094,466.772614   C254.100845,478.131104 243.467285,489.399078 233.091095,500.899292   C229.807434,504.538635 227.389862,504.535400 224.326370,500.832581   C222.106445,498.149353 219.503159,495.759277 216.917664,493.406830   C208.036636,485.326630 198.535782,485.041626 188.782562,491.965271   C184.745560,494.831085 182.442719,498.949310 179.193451,502.739838   C178.647446,496.888092 178.631607,491.158173 178.655518,485.428375   C178.664627,483.244293 178.704239,481.156830 176.868027,479.451508   C173.450638,476.277710 170.212952,472.910675 166.802658,469.728912   C164.788467,467.849731 162.643402,467.213074 160.257599,470.153046   C163.473221,472.953888 166.291168,475.782257 169.484222,478.092133   C173.229721,480.801636 174.490768,484.090363 174.442291,488.712921   C174.243073,507.705933 174.450287,526.702942 174.438599,545.698486   C174.437088,548.146362 174.887009,550.084045 176.806824,551.913696   C187.660492,562.257690 198.382431,572.739929 209.132065,583.192810   C214.442474,588.356628 215.952576,596.303589 212.695190,604.275330   C207.540283,599.215088 202.638855,594.342957 197.662201,589.549011   C195.749313,587.706360 194.841583,585.975098 195.465073,583.007324   C196.495972,578.100281 193.264648,574.504578 188.395477,574.222107   C183.835846,573.957642 180.604584,576.758057 180.357697,581.188049   C180.095078,585.900146 183.438705,589.514160 188.321121,589.440247   C190.041443,589.414185 191.588898,589.230225 192.967300,590.501099   C204.819916,601.429077 218.923553,611.157471 214.187057,630.832153   C213.960617,631.772827 214.178406,632.823975 214.212402,633.822937   C214.253891,635.041931 214.649277,636.156799 215.610275,636.917603   C220.832230,641.052124 226.049805,645.193787 231.348495,649.228516   C232.634308,650.207581 234.338043,650.350708 235.296860,648.762268   C236.300797,647.098999 235.268784,646.035278 233.697815,645.272095   C229.313614,643.142273 225.854019,639.650757 221.792053,637.060852   C218.595230,635.022400 217.613266,632.358887 217.667450,628.671936   C217.846161,616.510498 217.600708,604.342163 217.831284,592.182434   C217.910126,588.023804 216.775635,584.979492 213.666580,582.107056   C205.224609,574.307739 197.481583,565.706543 188.690674,558.343567   C180.849777,551.776306 177.158783,544.437500 178.529907,534.160767   C179.279663,528.541260 178.663849,522.739563 178.663849,516.393555   C179.997147,517.175232 180.507889,517.317993 180.775681,517.654236   C191.594910,531.238159 204.517395,542.861877 216.191696,555.648376   C218.215012,557.864502 220.528488,559.745117 223.511734,560.696350   C231.091171,563.112976 237.293869,560.813354 242.430481,555.167114   C263.952393,531.509766 285.433655,507.815460 306.910583,484.117279   C310.827484,479.795258 312.361908,474.669037 311.653809,468.034882  M268.657501,546.657959   C261.556641,553.639221 255.068924,561.424194 247.213715,567.416626   C234.922119,576.793396 229.823349,588.249329 232.218521,603.478394   C232.913483,607.897095 233.074112,612.436401 228.226959,615.868164   C224.926483,618.204895 225.808441,623.642761 228.841431,626.556763   C231.863998,629.460754 236.516479,629.503906 239.707901,626.657471   C243.085876,623.644653 244.069382,618.734314 240.697876,616.122498   C236.308212,612.721863 236.589737,608.606445 236.648392,604.123962   C236.715927,598.963257 236.818985,593.793030 236.583496,588.641724   C236.417908,585.018860 237.573273,582.386230 240.271790,579.909119   C250.204071,570.791748 259.197418,560.693970 269.391541,551.838135   C271.342163,550.143555 272.912415,548.280640 268.657501,546.657959  M198.449432,417.594696   C199.394760,416.681305 200.306854,415.730225 201.291260,414.861084   C205.418304,411.216980 205.847366,405.644684 202.245071,402.136902   C198.657394,398.643280 192.899612,398.742371 189.764923,402.351654   C186.315338,406.323517 186.751221,411.852478 191.275208,415.005157   C193.707474,416.700165 194.341736,418.567566 194.316940,421.253937   C194.233856,430.250854 194.391357,439.250671 194.246445,448.246002   C194.196869,451.322937 195.148529,453.594238 197.363525,455.725067   C207.088638,465.080627 216.689758,474.565033 226.341705,483.996704   C227.771301,485.393677 229.196304,486.799194 230.691635,488.123718   C231.652985,488.975311 232.759521,490.275665 234.062057,488.792084   C235.222488,487.470337 234.176697,486.321777 233.264313,485.319153   C232.592194,484.580505 231.870880,483.885529 231.155502,483.187500   C221.378082,473.647156 211.614487,464.092560 201.804993,454.585327   C199.718674,452.563293 197.920395,450.528625 197.959686,447.355164   C198.079224,437.697388 198.112350,428.038544 198.449432,417.594696  M257.682861,457.202454   C262.694397,452.335480 267.631531,447.388367 272.750366,442.636963   C275.140259,440.418610 276.232422,437.955322 276.023804,434.709991   C275.805298,431.311310 276.387054,428.406311 279.508514,425.961365   C283.777618,422.617462 283.738373,417.368896 280.111267,413.814423   C276.753998,410.524323 271.676178,410.395203 268.432007,413.517487   C264.858063,416.957092 264.997864,422.185120 268.763733,425.922943   C273.873413,430.994507 273.919678,436.074005 268.654938,441.186157   C260.302704,449.296326 251.819138,457.271088 243.438660,465.352448   C242.185226,466.561096 240.244202,468.045288 242.287369,469.885437   C244.192337,471.601013 245.704681,469.923462 246.795609,468.440338   C249.780334,464.382568 253.756424,461.304871 257.682861,457.202454  z"
   id="path1" />
<path
   fill="#000000"
   opacity="1.000000"
   stroke="none"
   d=" M251.240509,413.999512   C251.235123,417.159332 250.804520,419.901367 251.299576,422.464630   C253.104599,431.810486 248.191940,437.784424 241.652512,443.200836   C239.556152,444.937225 238.019791,444.984100 236.086166,443.110229   C230.835052,438.021454 225.525009,432.991821 220.162857,428.020172   C218.303009,426.295807 217.635040,424.317535 217.648529,421.822937   C217.716858,409.188324 217.668167,396.553070 217.684464,383.918060   C217.686371,382.444183 217.393204,380.751953 218.720718,379.710876   C225.054459,374.743774 229.815399,368.481964 233.184464,361.553131   C235.517883,361.733276 235.942871,363.037659 236.544281,364.228577   C239.211884,369.510834 242.906509,374.037079 247.627640,377.520721   C250.542877,379.671906 251.361618,382.120239 251.289505,385.571106   C251.095062,394.876923 251.233643,404.189697 251.240509,413.999512  M230.233078,418.310364   C235.415634,420.371490 239.918686,418.574615 241.460129,413.830322   C242.879059,409.463074 240.213852,404.997528 235.469238,404.067627   C232.012878,403.390228 229.164337,404.619843 227.434647,407.704590   C225.223328,411.648285 226.270676,415.058716 230.233078,418.310364  z"
   id="path2" />
<path
   fill="#000000"
   opacity="1"
   stroke="none"
   d="m 673.06477,557.94014 c -0.23474,-19.8993 -0.26422,-39.35843 -0.39825,-58.81687 -0.0207,-2.99728 1.17828,-4.54553 4.10394,-4.04861 3.2876,0.55847 8.21893,-2.65894 8.9231,3.83819 13.54547,-7.01461 25.58691,-5.794 32.70648,3.14585 7.65521,9.61245 7.11969,25.23779 -1.18597,34.60205 -7.33722,8.2724 -18.76508,9.12601 -30.98951,1.85724 0,5.45135 -0.18084,10.52511 0.0574,15.57913 0.18982,4.02637 -1.13654,6.04352 -5.38105,5.45496 -2.56054,-0.35505 -5.35461,0.82147 -7.83612,-1.61194 m 34.5188,-47.54273 c -4.51776,-5.02563 -10.38293,-6.3186 -15.52185,-3.42178 -5.16644,2.91238 -7.45111,9.94165 -5.42877,16.70245 1.63422,5.46338 6.76831,8.83029 12.63684,8.28714 9.11188,-0.84335 13.39313,-11.12628 8.31378,-21.56781 z"
   id="path3" />
<path
   fill="#000000"
   opacity="1"
   stroke="none"
   d="m 415.80986,530.89579 c 8.56628,1.40079 15.4754,-1.29177 21.00964,-6.6484 0.77008,0.23294 0.96146,0.23926 1.0824,0.33478 8.89871,7.0306 8.6684,9.61245 -1.33871,15.07821 -22.49164,12.28464 -49.60099,-2.82803 -50.52079,-28.16391 -0.81201,-22.36697 20.77585,-38.87594 42.98627,-32.87921 4.86874,1.31458 9.35577,3.33234 13.38886,6.45377 2.93615,2.27246 3.97995,4.26837 0.64202,7.07937 -1.75085,1.47452 -3.13864,3.38016 -4.94,5.3664 -7.68005,-6.00907 -15.62909,-9.74335 -25.12253,-6.14191 -5.23513,1.98599 -8.98239,5.66574 -11.13076,10.83768 -5.02222,12.09021 0.75808,24.25958 13.9436,28.68322 z"
   id="path4" />
<path
   fill="#000000"
   opacity="1"
   stroke="none"
   d="m 648.56746,496.26869 c 5.28473,-2.30536 10.34369,-0.95584 16.54266,-1.19244 -3.60779,5.31842 -7.83703,8.51553 -11.46319,12.20864 -5.89637,6.00519 -5.95124,5.89063 -1.28595,13.01142 4.63452,7.07379 9.18402,14.20327 13.78863,21.3359 -6.94415,3.6922 -14.32977,1.92707 -18.23462,-4.01977 -2.82879,-4.30811 -5.67242,-8.6066 -8.53869,-12.8898 -0.15479,-0.23136 -0.58002,-0.28171 -1.06293,-0.49881 -4.48755,3.13702 -8.06116,6.75979 -7.00952,13.02261 0.86975,5.17935 -2.29444,5.7038 -6.30475,5.47363 -3.58752,-0.20587 -7.37274,0.86164 -7.29944,-5.17062 0.23084,-18.98318 0.0441,-37.97143 0.0404,-56.9577 -1.9e-4,-0.97141 0.20044,-1.94287 0.35736,-3.36643 3.36767,-0.18628 6.63311,-0.41052 9.90234,-0.53509 3.0824,-0.11752 3.35913,1.95498 3.34802,4.34265 -0.0388,8.32712 -0.0438,16.65478 0.0136,24.98169 0.011,1.5979 -0.47509,3.29532 0.71741,5.16617 6.0976,-4.20514 10.80615,-9.80927 16.48871,-14.91205 z"
   id="path5" />
<path
   fill="#000000"
   opacity="1"
   stroke="none"
   d="m 469.95589,509.26182 c -2.68744,2.77143 -2.84348,5.95636 -2.87122,9.13263 -0.0567,6.48789 -0.10577,12.97779 3.1e-4,19.46427 0.0587,3.59243 -1.34995,4.94726 -5.04905,4.92041 -8.37847,-0.0608 -8.37612,0.10611 -8.37289,-8.39856 0.007,-17.30262 -0.0117,-34.60526 0.0248,-51.90781 0.0118,-5.5889 0.0879,-5.30069 8.65076,-5.67346 4.84302,-0.21085 4.96573,2.23788 4.92141,5.8042 -0.0633,5.09115 -0.57495,10.22305 0.42768,15.73886 4.09747,-1.58841 7.5087,-4.08106 11.76745,-4.33557 12.15711,-0.72669 20.28083,6.19018 20.73603,18.33203 0.32385,8.6391 -0.003,17.30087 0.0989,25.9509 0.0373,3.16677 -1.15747,4.66049 -4.40271,4.39263 -1.32174,-0.10907 -2.67163,-0.12414 -3.98922,0.01 -3.80594,0.38684 -5.40528,-1.05222 -5.2584,-5.07034 0.24897,-6.81186 0.0879,-13.64008 0.0399,-20.46097 -0.0282,-3.99963 -0.85931,-7.8396 -4.83609,-9.68836 -4.02988,-1.87341 -8.0889,-1.6166 -11.8876,1.78937 z"
   id="path6" />
<path
   fill="#000000"
   opacity="1"
   stroke="none"
   d="m 525.24483,528.1399 c 5.20349,5.26941 11.05865,4.94941 16.91534,2.61969 6.25458,-2.488 7.4151,-2.29129 11.55829,3.91434 -6.08905,9.05118 -21.1413,11.73471 -32.44794,5.78488 -10.60919,-5.58282 -15.28454,-19.13879 -10.72778,-31.10467 4.33795,-11.39127 16.79047,-17.78061 28.82184,-14.78842 13.16607,3.27447 19.59527,13.652 17.62683,29.20639 -10.9433,0 -21.98676,0 -32.69653,0 -1.21747,2.14831 -0.067,3.07013 0.94995,4.36779 m 18.41351,-16.25335 c -1.38647,-4.55005 -4.83734,-6.61621 -9.21393,-7.07971 -4.41449,-0.46747 -8.09595,1.29654 -10.74927,4.90362 -0.84899,1.15418 -1.95282,2.49002 -0.48346,3.94681 1.64991,1.63583 18.79761,0.68466 20.44666,-1.77072 z"
   id="path7" />
<path
   fill="#000000"
   opacity="1"
   stroke="none"
   d="m 744.43575,496.41157 c 5.54656,-2.3132 10.92852,-3.11587 16.44885,-1.9574 15.24963,3.20029 23.54016,16.73649 19.35614,31.43992 -3.99805,14.04989 -19.65729,21.51071 -34.05249,16.15939 -10.06934,-3.74313 -15.79651,-11.17426 -16.24774,-21.75397 -0.45404,-10.64602 4.1922,-18.93741 14.49524,-23.88794 m 0.53521,29.28488 c 4.48413,6.53876 11.22034,8.26795 17.16205,4.40555 5.53888,-3.60065 7.27826,-12.00747 3.79407,-18.33752 -3.14215,-5.70856 -10.07062,-7.73615 -15.96955,-4.67356 -5.68951,2.95386 -7.80792,10.07618 -4.98657,18.60553 z"
   id="path8" />
<path
   fill="#000000"
   opacity="1"
   stroke="none"
   d="m 832.3774,509.73073 c -2.58204,3.58709 -2.9004,7.40005 -2.94629,11.24246 -0.0656,5.48935 -0.24518,10.99325 0.0633,16.46615 0.24164,4.28849 -1.53308,5.71851 -5.52087,5.2681 -1.14997,-0.12994 -2.33423,-0.10501 -3.49012,-0.005 -3.28601,0.285 -4.46399,-1.38458 -4.45276,-4.44415 0.0476,-12.97666 0.0712,-25.95359 0.0444,-38.93027 -0.006,-3.12045 1.29211,-4.82224 4.49267,-4.32092 3.3675,0.52746 7.91388,-2.40067 9.51123,3.49658 4.45606,-2.57257 8.79804,-4.48233 13.78864,-4.50327 11.04211,-0.0464 18.82513,6.84983 19.31189,17.91788 0.38708,8.80096 0.0301,17.63254 0.14349,26.44873 0.0417,3.24442 -1.32763,4.57272 -4.49188,4.31354 -1.15668,-0.0948 -2.34503,-0.14002 -3.48944,0.0129 -4.42139,0.59076 -5.87085,-1.33087 -5.69281,-5.67105 0.27252,-6.64286 0.14593,-13.30927 -0.0223,-19.96036 -0.1051,-4.15549 -1.21838,-8.11923 -5.53668,-9.80249 -4.12189,-1.60666 -8.17877,-1.34799 -11.71246,2.47092 z"
   id="path9" />
<path
   fill="#000000"
   opacity="1"
   stroke="none"
   d="m 601.63252,527.08476 c 0.75415,0.35437 1.18793,0.60245 1.60962,0.8696 7.7497,4.90915 7.78821,6.05856 0.3891,11.4949 -7.90094,5.80496 -21.36841,5.52985 -30.17383,-0.61636 -8.13598,-5.67893 -11.84167,-16.56729 -9.0711,-26.65375 2.84228,-10.34753 11.3316,-17.34616 21.98681,-18.13821 7.04938,-0.52399 13.69855,0.63675 19.17865,5.38519 1.86127,1.61282 5.3924,3.26385 2.42572,6.74527 -3.87195,4.54376 -6.85956,5.2821 -10.16021,2.61755 -4.30689,-3.4768 -9.03095,-4.31598 -13.97498,-1.83926 -5.24231,2.62619 -6.84381,7.29422 -6.6095,12.93658 0.22547,5.42713 2.71283,9.16019 7.65259,11.23075 4.38001,1.83593 8.46076,0.9653 12.27564,-1.67783 1.32055,-0.91489 2.16546,-2.64923 4.47149,-2.35443 z"
   id="path10" />
<path
   fill="#000000"
   opacity="1"
   stroke="none"
   d="m 889.98012,485.6382 c 0.10962,1.61279 0.29266,2.79324 0.15539,3.93524 -0.52258,4.34848 1.26325,5.92972 5.66248,5.73803 5.47088,-0.2384 7.75134,3.45432 5.90161,8.67304 -0.91907,2.59296 -3.10205,2.09912 -4.99451,2.20581 -6.61462,0.37292 -6.61987,0.34079 -6.62011,6.80829 -1.3e-4,3.9899 -0.0793,7.98251 0.0396,11.96905 0.18677,6.25888 2.07184,7.57456 8.08185,5.87769 0.60876,-0.17188 1.26019,-0.19241 2.16491,-0.32242 0.91773,2.22632 1.71344,4.37805 2.68311,6.4484 1.01385,2.16476 0.14435,3.3096 -1.73596,4.38971 -11.59754,6.66192 -24.23487,-0.23258 -24.56421,-13.52146 -0.14411,-5.81546 -0.0814,-11.63718 -0.042,-17.45553 0.0173,-2.5604 -0.26764,-4.71692 -3.5918,-4.71134 -2.80396,0.005 -3.18573,-2.0274 -3.09082,-4.13144 0.10608,-2.35412 -0.73731,-5.66412 2.76452,-6.0202 4.28602,-0.43579 3.76569,-3.17804 3.95966,-6.02808 0.14465,-2.12536 -1.26373,-5.58838 1.7547,-5.98718 3.74188,-0.49435 8.16986,-2.46225 11.47156,2.13239 z"
   id="path11" />
<path
   fill="#000000"
   opacity="1.000000"
   stroke="none"
   d=" M346.271851,528.187012   C348.560425,528.566650 348.259125,530.119751 348.095520,531.338074   C347.099609,538.753723 345.906769,546.132629 343.876099,553.358337   C343.127411,556.022400 341.959656,557.557068 338.952332,556.419128   C338.500916,556.248352 337.916290,556.135986 337.476746,556.270081   C326.630219,559.578918 322.664246,550.164429 317.281189,544.536499   C313.869110,540.969177 314.739746,534.815918 316.806000,530.320129   C318.365997,526.925781 321.233704,523.532593 326.086823,523.936707   C327.947601,524.091675 329.734283,524.230835 331.040161,525.815063   C335.266418,530.942200 340.355652,530.896606 346.271851,528.187012  z"
   id="path12" />
<path
   fill="#000000"
   opacity="1"
   stroke="none"
   d="m 790.65901,504.36927 c 0.003,-0.99154 0.004,-1.49151 0.006,-1.99148 0.036,-7.75827 2.61029,-9.6463 10.41315,-7.80673 1.76861,0.41702 2.47864,1.2279 2.49219,3.06076 0.10101,13.65921 0.26727,27.3179 0.4342,40.97653 0.0354,2.90152 -1.22205,4.33679 -4.23077,4.11768 -1.32502,-0.0965 -2.6886,-0.14332 -3.99366,0.0558 -3.9281,0.59934 -5.27911,-0.91421 -5.19763,-4.9241 0.22327,-10.99493 0.0762,-21.99741 0.0767,-33.4885 z"
   id="path13" />





<path
   fill="#000000"
   opacity="1"
   stroke="none"
   d="m 800.08247,488.73793 c -5.77215,1.19653 -9.18139,-0.46756 -10.57245,-4.92993 -1.27606,-4.09378 0.27015,-7.21268 3.82392,-9.18955 3.55743,-1.97894 8.43951,-0.43057 10.41492,2.97299 2.24578,3.86948 1.1715,7.45236 -3.66639,11.14649 z"
   id="path19" />
















<path
   fill="#000000"
   opacity="1.000000"
   stroke="none"
   d=" M344.461639,516.594727   C347.083374,520.366821 346.088135,523.288391 342.890961,525.397766   C340.171143,527.192200 337.436066,526.497314 335.324463,524.075562   C332.951263,521.353821 333.400818,518.515259 335.649109,516.012573   C338.517609,512.819580 341.449402,513.529236 344.461639,516.594727  z"
   id="path36" />

<path
   fill="#000000"
   opacity="1.000000"
   stroke="none"
   d=" M335.512695,571.750366   C331.915924,570.155090 330.821503,567.584961 331.740540,564.300049   C332.478149,561.663513 334.457916,560.015320 337.215393,560.067993   C340.187500,560.124878 342.090576,562.023987 342.908997,564.803650   C344.060425,568.714172 341.229309,571.505066 335.512695,571.750366  z"
   id="path38" />
<path
   fill="#000000"
   opacity="1.000000"
   stroke="none"
   d=" M164.170349,610.498657   C168.231339,610.767273 170.389862,612.611084 170.423187,616.467712   C170.448105,619.350342 168.840729,621.196411 166.232071,621.980347   C163.325851,622.853699 160.977997,621.721191 159.456299,619.148438   C157.378174,615.635071 159.026062,612.450378 164.170349,610.498657  z"
   id="path39" />
<path
   fill="#000000"
   opacity="1.000000"
   stroke="none"
   d=" M304.662720,429.731812   C309.258362,428.824188 311.420227,431.191132 312.004303,434.873291   C312.479279,437.867615 310.613251,440.037994 307.712616,440.749939   C304.435913,441.554230 302.131805,439.827332 301.099670,436.857300   C300.008087,433.716125 301.473145,431.380005 304.662720,429.731812  z"
   id="path40" />

<path
   fill="#000000"
   opacity="1.000000"
   stroke="none"
   d=" M164.050766,572.708740   C165.893204,575.506409 166.083511,577.957642 163.778244,580.149353   C162.102539,581.742554 160.127731,582.466980 157.896164,581.363892   C154.845825,579.856140 153.307510,577.502319 154.699921,574.119446   C156.192703,570.492676 159.215454,570.006226 164.050766,572.708740  z"
   id="path42" />

<path
   fill="#000000"
   opacity="1.000000"
   stroke="none"
   d=" M165.120895,442.625732   C167.181778,439.332245 169.614182,438.007507 172.806961,440.210541   C175.237305,441.887512 176.303070,444.321991 175.065826,447.181854   C173.954697,449.750183 171.806946,451.095154 169.003952,450.338287   C165.275742,449.331604 164.145996,446.631622 165.120895,442.625732  z"
   id="path44" />
<path
   fill="#000000"
   opacity="1.000000"
   stroke="none"
   d=" M353.348511,489.624329   C352.356842,492.915955 350.251953,494.273926 347.300232,493.948090   C345.001312,493.694275 343.302185,492.249878 342.862732,489.915009   C342.229156,486.548859 343.379822,483.781036 346.980316,483.280182   C351.190430,482.694489 353.483856,484.877228 353.348511,489.624329  z"
   id="path45" />

<path
   fill="#000000"
   opacity="1.000000"
   stroke="none"
   d=" M304.236664,617.624634   C301.052612,614.487122 300.962250,611.488953 304.286713,609.039368   C307.164734,606.918762 309.590271,608.419739 311.383423,610.979980   C312.657501,612.798950 312.519318,614.744995 311.126740,616.460083   C309.340210,618.660400 307.106506,619.151672 304.236664,617.624634  z"
   id="path47" />



<path
   fill="#000000"
   opacity="1.000000"
   stroke="none"
   d=" M290.668884,523.166199   C293.616791,524.524658 294.789703,526.457336 293.765411,529.274963   C293.099243,531.107422 291.779236,532.285583 289.698547,532.271729   C287.442841,532.256653 285.775757,531.028259 285.303619,528.987427   C284.391968,525.046692 286.367188,523.131104 290.668884,523.166199  z"
   id="path51" />

<path
   fill="#000000"
   opacity="1.000000"
   stroke="none"
   d=" M139.404083,560.281006   C141.353195,563.325195 140.254288,565.378296 137.775436,566.749207   C135.960281,567.753052 134.185638,567.098083 132.921844,565.495422   C131.622452,563.847595 131.680267,562.084778 133.052078,560.503967   C134.885361,558.391418 136.960709,558.229614 139.404083,560.281006  z"
   id="path53" />

<path
   fill="#000000"
   opacity="1.000000"
   stroke="none"
   d=" M154.243698,533.062317   C155.196213,530.670410 156.613770,529.466675 158.930359,529.892700   C160.539307,530.188599 161.503922,531.330078 161.946777,532.830688   C162.421356,534.438782 161.825424,536.008972 160.494019,536.715149   C157.010468,538.562744 154.859589,537.274231 154.243698,533.062317  z"
   id="path55" />
<path
   fill="#000000"
   opacity="1.000000"
   stroke="none"
   d=" M309.061890,585.796997   C306.305084,584.857544 305.185699,583.274048 306.155548,580.746704   C306.725403,579.261719 307.867340,578.206299 309.533478,578.302673   C311.380798,578.409485 312.644653,579.577148 312.935120,581.375488   C313.357635,583.991638 311.882416,585.349365 309.061890,585.796997  z"
   id="path56" />
<path
   fill="#000000"
   opacity="1.000000"
   stroke="none"
   d=" M152.459885,460.357666   C154.545715,461.826416 155.723099,463.342194 154.193634,465.496033   C153.138489,466.981964 151.554672,467.545135 149.831100,466.945251   C148.135468,466.355072 146.945648,464.974335 147.333374,463.170502   C147.850647,460.763947 149.546738,459.614685 152.459885,460.357666  z"
   id="path57" />
<path
   fill="#000000"
   opacity="1.000000"
   stroke="none"
   d=" M286.287384,465.078979   C290.694122,463.531128 293.811066,464.809265 296.024109,468.389862   C298.570648,472.510040 295.832825,475.438141 293.427521,478.123077   C279.753601,493.386932 265.996063,508.576355 252.197739,523.728088   C246.701706,529.763245 241.111664,535.718201 235.410110,541.559082   C230.561722,546.525879 227.502823,546.562317 222.735596,541.685913   C214.465607,533.226440 206.297852,524.665527 198.175217,516.064087   C194.108780,511.757935 193.868286,507.751740 197.202148,504.673828   C200.386124,501.734253 205.042618,501.988190 208.749420,505.784637   C215.250015,512.442383 221.523849,519.321533 228.369904,526.616577   C235.501389,519.087341 241.711411,512.667542 247.768768,506.106750   C259.635101,493.254242 271.408936,480.316315 283.249695,467.440094   C284.027252,466.594543 285.047363,465.972015 286.287384,465.078979  z"
   id="path58" />
<path
   fill="#000000"
   opacity="1.000000"
   stroke="none"
   d=" M189.983459,578.810181   C191.904755,580.718201 192.151138,582.497253 190.363388,584.176208   C189.160019,585.306274 187.704254,585.436584 186.320465,584.421265   C185.000549,583.452759 184.414185,582.073059 184.984955,580.529297   C185.809433,578.299438 187.417908,577.554382 189.983459,578.810181  z"
   id="path59" />
<path
   fill="#000000"
   opacity="1.000000"
   stroke="none"
   d=" M200.375336,406.525757   C201.233017,409.840729 200.054504,411.724945 197.124069,412.314697   C194.994812,412.743195 193.140076,412.022919 192.210800,409.926361   C191.324722,407.927277 191.533401,405.909058 193.455612,404.652588   C196.103455,402.921844 198.449280,403.528900 200.375336,406.525757  z"
   id="path60" />
<path
   fill="#000000"
   opacity="1.000000"
   stroke="none"
   d=" M274.102356,417.162109   C275.791687,419.529510 276.432159,421.873993 273.638824,423.181641   C272.132202,423.886871 270.811218,422.221985 270.510651,420.708649   C270.015686,418.216461 270.640350,416.337524 274.102356,417.162109  z"
   id="path61" />
</svg>
